<?xml version="1.0" encoding="UTF-8"?><svg id="_レイヤー_2" xmlns="http://www.w3.org/2000/svg" viewBox="0 0 3376.85 675.48"><defs><style>.cls-1{fill:#fff;}</style></defs><g id="_レイヤー_1-2"><path class="cls-1" d="M0,652.43c14.03-6.7,39.36-11.53,76.02-14.47,28.5-.98,45.47-2.78,50.91-5.41,3.62-1.95,6.33-4.41,8.14-7.34,6.78-12.09,11.77-44.94,14.94-98.56,4.12-69.33,10.77-161.61,19.94-276.84,7.33-87.89,11-142.75,11-164.56v-12.69c-32.66-4.44-84.38-9.16-155.14-14.19-4.53-4.89-6.8-8.64-6.8-11.25,0-1.62,1.58-4.56,4.77-8.81,7.7-1.95,13.59-2.94,17.69-2.94,3.62,0,11.56.48,23.81,1.45,22.22,1.7,52.84,2.55,91.86,2.55,12.69,0,34.47-.75,65.31-2.28,21.78-1.14,34.03-1.72,36.75-1.72,7.25,0,15.64,1.02,25.17,3.03,4.17,3.25,7.31,6.34,9.41,9.25l28.92,45.72,191.31,305.98,79.5,127.52c63.16-89.28,112.23-168.66,147.23-238.14,2.27-5.19,4.98-9.91,8.17-14.12,4.09-5.52,7.95-11.69,11.59-18.5,3.62-6.81,18.39-32.8,44.3-77.92,10.45-18.19,18.86-33.77,25.22-46.75,25.91-51.94,41.12-81.66,45.67-89.12,8.53-2.62,15.95-3.94,22.25-3.94,7.19,0,16.41.34,27.66,1,25.17,1.31,66.08,1.97,122.73,1.97,35.06,0,63.84-.31,86.33-.97.89,3.56,1.34,6.16,1.34,7.77,0,2.28-.69,5.36-2.05,9.23-14.5,5.53-31.95,8.61-52.34,9.25-40.34,1.62-65.94,3.91-76.81,6.83s-17.8,6.66-20.73,11.19c-2.95,4.55-5.56,19.48-7.81,44.8l.69,22.39-.69,23.38c0,48.69,1.81,130.47,5.44,245.38l-.69,95.42.67,61.34c0,24.03,1.58,38.23,4.75,42.61,3.16,4.38,12.22,8.52,27.16,12.41,24.42,5.84,64.23,11.86,119.42,18.02,3.16,1.67,4.75,3.84,4.75,6.5,0,3-.23,6.31-.69,9.92h-31.19c-26.69,0-55.62-.58-86.81-1.7-31.19-1.16-47.92-1.72-50.17-1.72-92.69,0-154.17.75-184.45,2.28-18.55,1.14-30.3,1.72-35.27,1.72-3.17,0-6.56-.67-10.17-2v-6.5c0-3,.67-6.16,2.03-9.5,14.84-4.55,35.11-7.64,60.77-9.27,28.36-5.52,49.06-11.36,62.12-17.55,4.05-12.34,6.08-37.55,6.08-75.59l-.75-98.5c0-10.72.56-30.72,1.72-59.97s1.73-76.88,1.73-142.88c0-52.34-1.23-92-3.7-118.98-7.78,11.41-23.11,36.19-45.98,74.31l-10.3,18.58-1.38,2.94-101.59,171.12-36.38,66.02-47.36,80.17c-20.59,36.84-38.22,69.44-52.86,97.8-6.41,13.03-11.67,23.3-15.78,30.8l-12.02-1c-51.2-107.45-112.25-217.67-183.16-330.67s-120.64-187.56-149.17-223.72c-3.72,14-7.89,54.7-12.53,122.09-6.03,82.06-9.05,172.41-9.05,271.06,0,30.52,3.16,64.88,9.5,103.09,1.81,10.94,8.36,19.05,19.67,24.34s40.48,8.27,87.52,8.91c18.09,0,35.28.97,51.56,2.89,3.16,5.12,4.75,8.89,4.75,11.28,0,1.72-1.14,4.62-3.39,8.72l-210.67-4c-15.36,0-39.3.75-71.81,2.22-18.06.89-44.03,1.48-77.91,1.78l-.67-12.94Z"/><path class="cls-1" d="M746.02,666.05l.67-12.2c9.88-3.56,26.39-6.73,49.52-9.5s39.08-5.53,47.84-8.3c8.75-2.77,16.06-6.44,21.91-11,4.03-14.31,6.06-40.17,6.06-77.61V167.62l2.03-62.97c0-13.02-3.56-21.97-10.66-26.84s-25.72-9.38-55.86-13.48-47.92-7.48-53.36-10.11-8.16-5.42-8.16-8.38c0-1.64.67-3.78,2.03-6.42,5.88-2.62,11.98-3.94,18.33-3.94,6.78,0,20.59.33,41.42.98h19c6.34,0,24.22-.33,53.64-.98h94.36l194.84-2.36,206.38-5.64h18.33l29.2-.5c8.14,0,15.38,1.62,21.72,4.88,2.72,5.19,4.3,8.92,4.75,11.17l-.67,19.45,5.67,86.98c0,3.56-.45,8.11-1.33,13.61-7.05,2.28-13.42,3.41-19.14,3.41-3.97,0-7.06-.97-9.25-2.94-3.53-3.58-5.73-10.42-6.64-20.52-1.81-14-8.8-32.08-20.97-54.23-5.86-10.41-15.55-17.58-29.08-21.5-27.06-7.47-72.59-11.22-136.62-11.22-30.22,0-58.39.58-84.55,1.7-26.16,1.14-42.17,1.7-48.03,1.7l-52.75-.48c-21.66,0-39.47,2.28-53.44,6.84-9.47,2.94-14.2,9.97-14.2,21.06v7.34c1.34,16.66,2.03,35.09,2.03,55.33l-2.03,133.19c0,13.06,1.34,25.45,4.03,37.2l19.5.98,37.66-1.47h128.42c51.55,0,87.41-2.59,107.58-7.81,13.44-3.58,23.53-8.95,30.27-16.12,2.23-2.28,7.84-15.14,16.81-38.59l8.73-40.53c5.41-1.95,9.47-2.94,12.17-2.94,2.25,0,5.86.81,10.83,2.44,1.88,7.47,3.06,18.81,3.53,34.06l8.47,179.09c-7.66,2.28-13.52,3.41-17.56,3.41l-7.44-.97c-7.22-32.44-18.47-57.91-33.77-76.41-5.41-6.48-11.48-10.22-18.23-11.19-11.72-1.95-65.3-2.94-160.75-2.94-29.72,0-50.2.17-61.45.5-27.02.98-43.22,1.47-48.62,1.47h-6.75c-13.52,0-23.2,1.31-29.05,3.91-1.81,3.92-2.7,6.69-2.7,8.31v33.75c0,3.91.22,20.2.67,48.89l-1.34,161.86c0,4.56,1.8,10.28,5.42,17.12,9.47,5.55,26.75,9.22,51.81,11,25.06,1.8,48.67,6.09,70.8,12.89,12.64,4.22,18.97,8.92,18.97,14.11,0,2.27-.91,4.36-2.7,6.31-1.81,1.94-4.97,3.41-9.48,4.38-37-5.34-88.2-8-153.61-8-34.75,0-71.52,2.23-110.31,6.7-26.62,2.86-57.08,4.3-91.36,4.3l-13.53-2.44Z"/><path class="cls-1" d="M1524.88,311.48l.69-14.5c29.47-6.2,45.34-9.8,47.61-10.78,16.33-5.22,33.45-13.2,51.38-23.98,17.91-10.78,32.98-22.86,45.23-36.25,5.44-.64,9.75-.97,12.94-.97l8.16.48c1.81,15.67,2.72,27.09,2.72,34.27,0,1.64-.45,8.98-1.36,22.03v25.95l.67,141-2.03,149.33c-.45,12.08,2.25,20.48,8.12,25.22s23.27,10.03,52.19,15.91c18.06,3.59,31.62,6.69,40.66,9.3,1.34,2.25,2.03,4.19,2.03,5.78,0,1.94-1.14,4.33-3.39,7.22-17.64-.34-40.25-1.17-67.84-2.5-37.55-2.33-62.42-3.5-74.62-3.5-5.88,0-42.06.67-108.55,2-13.56.28-26.69.94-39.34,2-2.27,0-5.89-.55-10.86-1.62-2.27-2.52-3.39-4.67-3.39-6.48,0-5.03,4.28-9,12.88-11.89,1.81-.64,24.86-4.36,69.14-11.14,14.45-1.94,23.94-5.16,28.47-9.69,7.67-6.78,11.52-17.59,11.52-32.47.89-24.86,1.34-93.02,1.34-204.45,0-22.28-1.36-36.17-4.06-41.67-2.28-3.88-8.28-8.31-18.03-13.31s-30.5-10.09-62.25-15.27ZM1582.88,57.8c0-10.67,5.75-19.89,17.28-27.66,11.52-7.77,25.41-11.66,41.69-11.66s31.39,4.38,44.05,13.11,18.98,18.11,18.98,28.14-6.33,19.5-18.98,28.41-27.33,13.34-44.05,13.34-30.73-4.03-42.03-12.12-16.94-18.61-16.94-31.56Z"/><path class="cls-1" d="M2340.77,402.48l-271.98,2.11-51.52-.59c-20.69,0-41.83.5-63.41,1.48-4.06,9.73-6.09,16.39-6.09,19.95l.67,4.86v4.86l-.67,23.84c0,19.78,8.67,44.03,26.05,72.73s42.19,50.59,74.45,65.67c32.27,15.09,72.53,23.11,120.81,24.08,25.72-.97,46.25-3.27,61.59-6.88s37-11.97,64.98-25.09l48.72-29.03,4.08,19.69c0,2.3-.23,4.75-.69,7.38-20.31,18.55-46.05,34.81-77.2,48.8-31.16,14-62.77,24.23-94.81,30.75-15.36,2.92-40.64,4.39-75.86,4.39-32.06,0-63.66-4.72-94.81-14.12-46.06-14.28-82.3-37.25-108.7-68.91s-39.61-70.06-39.61-115.19c0-14.28,3.72-32.62,11.19-55.03,7.45-22.41,20.89-46.27,40.33-71.59,13.09-17.2,29.14-31.33,48.12-42.38,27.11-15.58,50.84-26.45,71.19-32.62,29.38-8.77,63.48-13.16,102.36-13.16,42.02,0,76.36,5.56,103.03,16.66,36.16,14.69,63.16,33.62,81,56.81s26.78,44.42,26.78,63.67v6.86ZM1962.68,385.48h31.83c23.03,0,91.66-2.66,205.89-8,18.06-.66,29.12-1.97,33.19-3.94,8.12-6.23,12.19-11.81,12.19-16.73,0-10.17-4.52-21.73-13.55-34.7s-22.92-22.97-41.66-30.03-40.52-10.59-65.34-10.59c-52.38,0-94.38,14.3-125.97,42.88-24.39,21.69-36.58,42.06-36.58,61.12Z"/><path class="cls-1" d="M2416.96,53.48v-11c12.62-2.91,26.62-5.98,41.98-9.22,22.73-5.17,56.39-13.09,100.95-23.78h32.06v26.89c0,267.55-1,427.06-3,478.55-1.34,30.31-2,46.45-2,48.39,0,36.5,2.02,56.88,6.08,61.11,5.39,5.88,21.92,9.94,49.59,12.22,27.66,2.28,43.97,4.56,48.92,6.84,3.59,1.34,5.41,3.67,5.41,7,0,3.67-1.03,6.25-3.06,7.75s-5.77,2.25-11.2,2.25c-3.17,0-26.94-.58-71.3-1.72l-88.97-2.28-114.09,4c-7.25.33-12.69-.7-16.3-3.08-2.72-1.7-4.08-4.09-4.08-7.17,0-3.42,1.47-5.91,4.42-7.44,2.94-1.53,19.27-4.09,48.98-7.69,29.72-3.58,46.73-6.59,51.05-9.03s7.14-7.89,8.5-16.36c1.81-11.72,2.73-44.77,2.73-99.14l-.69-112.31,2.03-116.23-.67-116.22,2.03-57.14c0-11.39-2.48-19.61-7.45-24.66s-15.58-10.02-31.83-14.91c-24.38-7.16-41.08-12.36-50.11-15.62Z"/><path class="cls-1" d="M3195.85,303.84l.67-14.17-.67-57.17.67-107.98c0-29.97-4.56-49.03-13.67-57.17s-35.77-16.45-79.97-24.92c-3.19-.66-8.2-1.62-15.03-2.94v-5.33c0-3.23.45-6.8,1.36-10.67,61.36-4.56,114.16-12.22,158.38-23l34.53-.48c1.8,22.08,2.7,46.75,2.7,74.02l-2.7,187.48,4.73,211.34-2.03,112.48c0,23.06,2.25,36.05,6.77,38.95,9.02,6.5,28.86,9.92,59.55,10.23,6.31,0,14.89.33,25.72.97v9c0,2.34-.23,4.84-.67,7.5-14.03,2.34-28.5,4.5-43.41,6.5l-98.33,14c-14.47,2-26,3-34.59,3v-46.39c-7.69,1.66-19.67,4.94-35.94,9.86-70.53,21.69-135.39,32.53-194.61,32.53-35.72,0-72.12-8.39-109.19-25.14-37.06-16.77-65.55-40.12-85.44-70.08-19.89-29.94-29.83-60.55-29.83-91.8,0-27.98,6.56-54.75,19.72-80.31s30.39-46.8,51.7-63.73c13.59-11.06,32.88-22.05,57.81-32.95s45.58-17.81,61.91-20.75c40.36-7.48,67.34-11.23,80.95-11.23,61.22,0,111.55,6.53,151.02,19.56,12.25,4.25,21.55,7.17,27.89,8.8ZM3195.15,605.2c1.8-21.78,2.7-66.64,2.7-134.58,0-57.53-3.72-93.86-11.16-108.98s-26.05-29.42-55.8-42.92c-29.75-13.48-63.11-20.23-100.08-20.23-51.84,0-95.81,14.47-131.88,43.41s-54.09,71.67-54.09,128.23c0,49.75,19.48,89.41,58.48,118.98,39,29.59,87.58,44.38,145.73,44.38,33.36,0,63.8-3.25,91.3-9.75s45.75-12.67,54.78-18.53Z"/></g></svg>